<svg width="472" height="177" viewBox="0 0 472 177" fill="none" xmlns="http://www.w3.org/2000/svg">
<g filter="url(#filter0_d_14_2)">
<path d="M69.36 76.7C69.36 76.7 77.18 69.9 90.78 79.76C104.38 89.62 102.68 112.06 102.68 112.06" stroke="url(#paint0_linear_14_2)" stroke-width="3" stroke-linecap="round"/>
</g>
<path d="M114.28 69.56C115.384 69.56 116.28 70.4554 116.28 71.56V77.7602C116.28 78.8647 115.384 79.7602 114.28 79.7602H102.64C101.536 79.7602 100.64 78.8647 100.64 77.7602V71.56C100.64 70.4554 101.535 69.56 102.64 69.56H114.28ZM108.46 72.2797C107.146 72.2797 106.081 73.3454 106.08 74.6596C106.08 75.974 107.146 77.0405 108.46 77.0405C109.775 77.0403 110.84 75.9739 110.84 74.6596C110.84 73.3455 109.774 72.2799 108.46 72.2797Z" fill="url(#paint1_radial_14_2)"/>
<path d="M101.36 114.44C102.464 114.44 103.36 115.335 103.36 116.44V122.64C103.36 123.745 102.464 124.64 101.36 124.64H89.72C88.6155 124.64 87.7201 123.745 87.72 122.64V116.44C87.72 115.335 88.6154 114.44 89.72 114.44H101.36ZM95.5403 117.16C94.226 117.16 93.1606 118.225 93.1604 119.54C93.1604 120.854 94.2259 121.919 95.5403 121.919C96.8546 121.919 97.9202 120.854 97.9202 119.54C97.92 118.225 96.8545 117.16 95.5403 117.16Z" fill="url(#paint2_radial_14_2)"/>
<path d="M73.4796 92C74.5842 92 75.4796 92.8954 75.4796 94V100.2C75.4795 101.305 74.5841 102.2 73.4796 102.2H61.84C60.7355 102.2 59.8401 101.305 59.84 100.2V94C59.84 92.8954 60.7354 92 61.84 92H73.4796ZM67.6603 94.7197C66.346 94.7197 65.2806 95.7853 65.2804 97.0996C65.2804 98.414 66.3459 99.4795 67.6603 99.4795C68.9746 99.4793 70.0402 98.4139 70.0402 97.0996C70.04 95.7855 68.9745 94.7199 67.6603 94.7197Z" fill="url(#paint3_radial_14_2)"/>
<path d="M107.866 85.258C108.086 84.4593 107.617 83.6336 106.818 83.4138C106.019 83.1939 105.194 83.6632 104.974 84.462L107.866 85.258ZM106.42 84.86L104.974 84.462C102.825 92.2709 97.4604 96.7544 89.7941 98.3515L90.1 99.82L90.4059 101.288C99.0596 99.4856 105.389 94.2598 107.866 85.258L106.42 84.86ZM90.1 99.82L89.7941 98.3515C80.9504 100.194 75.6609 107.337 71.8006 114.031L73.1 114.78L74.3994 115.529C78.2114 108.919 82.9296 102.846 90.4059 101.288L90.1 99.82Z" fill="url(#paint4_linear_14_2)"/>
<circle cx="106.42" cy="84.86" r="1.88" fill="url(#paint5_radial_14_2)" stroke="url(#paint6_linear_14_2)"/>
<circle cx="69.7" cy="76.7" r="1.88" fill="url(#paint7_radial_14_2)" stroke="url(#paint8_linear_14_2)"/>
<path d="M85 58C93.8057 58 101.829 61.3479 107.868 66.8398H99.96V67.1523C95.5921 64.5169 90.4733 63 85 63C68.9837 63 56 75.9837 56 92C56 108.016 68.9837 121 85 121C85.456 121 85.9095 120.988 86.3604 120.967V125.971C85.9091 125.988 85.4556 126 85 126C66.2223 126 51 110.778 51 92C51 73.2223 66.2223 58 85 58ZM117.442 81.7998C118.454 85.0199 119 88.4461 119 92C119 103.123 113.658 112.997 105.4 119.2V112.608C110.71 107.352 114 100.061 114 92C114 88.41 113.346 84.973 112.153 81.7998H117.442Z" fill="url(#paint9_radial_14_2)"/>
<path d="M144.622 78.624V74.4H165.742V78.624H157.438V108H152.926V78.624H144.622ZM169.113 108V94.896C169.113 91.216 169.801 88.672 171.177 87.264C171.849 86.56 172.665 86.032 173.625 85.68C174.585 85.328 175.417 85.12 176.121 85.056C176.857 84.992 177.849 84.96 179.097 84.96H183.321V88.992H178.233C177.593 88.992 177.097 89.008 176.745 89.04C176.393 89.072 175.977 89.184 175.497 89.376C175.017 89.568 174.601 89.872 174.249 90.288C173.641 91.056 173.337 92.592 173.337 94.896V108H169.113ZM199.243 94.464V98.784C198.027 97.856 196.539 97.392 194.779 97.392C193.275 97.392 192.107 97.696 191.275 98.304C190.443 98.88 190.027 99.712 190.027 100.8C190.027 102.912 191.595 103.968 194.731 103.968H201.067V94.8C201.067 90.928 199.179 88.992 195.403 88.992H187.723V84.96H195.643C198.747 84.96 201.131 85.728 202.795 87.264C204.459 88.8 205.291 91.008 205.291 93.888V108H194.587C191.867 108 189.707 107.392 188.107 106.176C186.507 104.96 185.707 103.184 185.707 100.848C185.707 98.512 186.555 96.736 188.251 95.52C189.947 94.304 192.075 93.696 194.635 93.696C196.075 93.696 197.611 93.952 199.243 94.464ZM226.312 102.96L229.192 105.792C226.984 107.584 224.456 108.48 221.608 108.48C218.056 108.48 215.208 107.344 213.064 105.072C210.92 102.768 209.848 99.904 209.848 96.48C209.848 93.12 210.968 90.288 213.208 87.984C215.48 85.648 218.28 84.48 221.608 84.48C224.456 84.48 226.984 85.376 229.192 87.168L226.36 90.048C225.016 89.024 223.432 88.512 221.608 88.512C219.4 88.512 217.64 89.248 216.328 90.72C215.048 92.16 214.408 94.08 214.408 96.48C214.408 98.88 215.048 100.816 216.328 102.288C217.64 103.728 219.4 104.448 221.608 104.448C223.464 104.448 225.032 103.952 226.312 102.96ZM246.503 84.96H251.159L245.351 94.992C249.287 96.048 251.255 99.232 251.255 104.544V108H247.031V104.496C247.031 102.352 246.391 100.704 245.111 99.552C243.863 98.368 242.071 97.776 239.735 97.776C238.999 97.776 238.247 97.824 237.479 97.92V108H233.255V74.4H237.479V94.128C238.823 93.936 240.167 93.936 241.511 94.128L246.503 84.96ZM273.742 74.4V78.624H265.246C262.014 78.624 260.398 79.936 260.398 82.56C260.398 83.968 261.102 85.168 262.51 86.16C263.95 87.12 265.886 88.048 268.318 88.944C269.406 89.36 270.334 89.792 271.102 90.24C271.87 90.656 272.638 91.216 273.406 91.92C274.174 92.624 274.75 93.536 275.134 94.656C275.518 95.744 275.71 97.008 275.71 98.448C275.71 100.048 275.374 101.488 274.702 102.768C274.03 104.016 273.166 105.008 272.11 105.744C271.054 106.448 269.966 106.992 268.846 107.376C267.758 107.728 266.686 107.92 265.63 107.952C265.182 107.984 264.542 108 263.71 108H256.222V103.776H263.566C265.742 103.776 267.518 103.328 268.894 102.432C270.27 101.504 270.958 100.16 270.958 98.4C270.958 97.536 270.766 96.784 270.382 96.144C269.998 95.472 269.438 94.896 268.702 94.416C267.998 93.936 267.262 93.52 266.494 93.168C265.758 92.816 264.862 92.448 263.806 92.064C263.518 91.968 263.294 91.888 263.134 91.824C258.11 89.904 255.598 86.768 255.598 82.416C255.598 79.728 256.462 77.728 258.19 76.416C259.918 75.072 262.174 74.4 264.958 74.4H273.742ZM278.105 88.992L286.697 80.4V84.96H293.177V88.992H286.697V98.88C286.697 100 286.873 100.928 287.225 101.664C287.609 102.4 288.153 102.928 288.857 103.248C289.561 103.536 290.217 103.728 290.825 103.824C291.465 103.92 292.249 103.968 293.177 103.968V108C289.497 108 286.777 107.296 285.017 105.888C283.257 104.48 282.377 102.144 282.377 98.88V88.992H278.105ZM316.859 108H308.555C305.003 108 302.459 107.472 300.923 106.416C299.547 105.488 298.667 104.384 298.283 103.104C297.931 101.792 297.755 100.08 297.755 97.968V84.96H301.979V97.92C301.979 98.496 301.995 98.992 302.027 99.408C302.059 99.792 302.171 100.304 302.363 100.944C302.555 101.552 302.827 102.064 303.179 102.48C303.531 102.864 304.043 103.216 304.715 103.536C305.387 103.824 306.203 103.968 307.163 103.968H312.635V84.96H316.859V108ZM340.88 74.4H345.2V108H333.92C330.432 108 327.6 106.896 325.424 104.688C323.248 102.448 322.16 99.632 322.16 96.24C322.16 92.912 323.28 90.128 325.52 87.888C327.792 85.616 330.48 84.48 333.584 84.48C335.568 84.48 337.424 84.96 339.152 85.92V90.24C337.552 89.088 335.696 88.512 333.584 88.512C331.664 88.512 330.032 89.232 328.688 90.672C327.376 92.08 326.72 93.936 326.72 96.24C326.72 98.576 327.344 100.448 328.592 101.856C329.872 103.264 331.648 103.968 333.92 103.968H340.88V74.4ZM357.198 108H352.974V88.992H349.038L350.958 84.96H357.198V108ZM352.782 80.16C352.366 79.616 352.158 79.024 352.158 78.384C352.158 77.744 352.366 77.168 352.782 76.656C353.198 76.112 353.838 75.84 354.702 75.84C355.566 75.84 356.206 76.112 356.622 76.656C357.038 77.168 357.246 77.744 357.246 78.384C357.246 79.024 357.038 79.616 356.622 80.16C356.206 80.672 355.566 80.928 354.702 80.928C353.838 80.928 353.198 80.672 352.782 80.16ZM366.254 87.984C368.494 85.648 371.294 84.48 374.654 84.48C376.286 84.48 377.806 84.8 379.214 85.44C380.654 86.048 381.902 86.896 382.958 87.984C384.046 89.072 384.894 90.352 385.502 91.824C386.11 93.264 386.414 94.816 386.414 96.48C386.414 98.144 386.11 99.712 385.502 101.184C384.926 102.624 384.11 103.888 383.054 104.976C381.998 106.064 380.75 106.928 379.31 107.568C377.87 108.176 376.318 108.48 374.654 108.48C372.958 108.48 371.39 108.176 369.95 107.568C368.542 106.928 367.31 106.064 366.254 104.976C365.198 103.888 364.366 102.624 363.758 101.184C363.182 99.712 362.894 98.144 362.894 96.48C362.894 93.088 364.014 90.256 366.254 87.984ZM374.654 88.512C372.414 88.512 370.606 89.248 369.23 90.72C367.886 92.192 367.214 94.112 367.214 96.48C367.214 98.848 367.886 100.768 369.23 102.24C370.606 103.712 372.414 104.448 374.654 104.448C376.926 104.448 378.734 103.712 380.078 102.24C381.422 100.736 382.094 98.816 382.094 96.48C382.094 94.144 381.422 92.24 380.078 90.768C378.734 89.264 376.926 88.512 374.654 88.512Z" fill="white"/>
<rect width="472" height="177" rx="25" fill="url(#paint10_radial_14_2)"/>
<rect width="472" height="177" rx="25" fill="url(#paint11_radial_14_2)"/>
<rect width="472" height="177" rx="25" fill="url(#paint12_radial_14_2)"/>
<defs>
<filter id="filter0_d_14_2" x="63.86" y="72.9146" width="44.388" height="48.6454" filterUnits="userSpaceOnUse" color-interpolation-filters="sRGB">
<feFlood flood-opacity="0" result="BackgroundImageFix"/>
<feColorMatrix in="SourceAlpha" type="matrix" values="0 0 0 0 0 0 0 0 0 0 0 0 0 0 0 0 0 0 127 0" result="hardAlpha"/>
<feOffset dy="4"/>
<feGaussianBlur stdDeviation="2"/>
<feComposite in2="hardAlpha" operator="out"/>
<feColorMatrix type="matrix" values="0 0 0 0 0 0 0 0 0 0 0 0 0 0 0 0 0 0 0.25 0"/>
<feBlend mode="normal" in2="BackgroundImageFix" result="effect1_dropShadow_14_2"/>
<feBlend mode="normal" in="SourceGraphic" in2="effect1_dropShadow_14_2" result="shape"/>
</filter>
<linearGradient id="paint0_linear_14_2" x1="86.054" y1="74.4147" x2="86.054" y2="112.06" gradientUnits="userSpaceOnUse">
<stop stop-color="#008EF2"/>
<stop offset="1" stop-color="#00528C"/>
</linearGradient>
<radialGradient id="paint1_radial_14_2" cx="0" cy="0" r="1" gradientUnits="userSpaceOnUse" gradientTransform="translate(112.025 75.2601) rotate(-176.55) scale(13.7095 8.98512)">
<stop stop-color="#00A6D4"/>
<stop offset="1" stop-color="#004474"/>
</radialGradient>
<radialGradient id="paint2_radial_14_2" cx="0" cy="0" r="1" gradientUnits="userSpaceOnUse" gradientTransform="translate(99.1047 120.14) rotate(-176.55) scale(13.7095 8.98512)">
<stop stop-color="#00A6D4"/>
<stop offset="1" stop-color="#004474"/>
</radialGradient>
<radialGradient id="paint3_radial_14_2" cx="0" cy="0" r="1" gradientUnits="userSpaceOnUse" gradientTransform="translate(71.2247 97.7001) rotate(-176.55) scale(13.7095 8.98512)">
<stop stop-color="#00A6D4"/>
<stop offset="1" stop-color="#004474"/>
</radialGradient>
<linearGradient id="paint4_linear_14_2" x1="89.76" y1="84.86" x2="89.76" y2="114.78" gradientUnits="userSpaceOnUse">
<stop stop-color="#008EF2"/>
<stop offset="1" stop-color="#00528C"/>
</linearGradient>
<radialGradient id="paint5_radial_14_2" cx="0" cy="0" r="1" gradientUnits="userSpaceOnUse" gradientTransform="translate(107.505 85.14) rotate(-174.719) scale(4.18276)">
<stop stop-color="#00A6D4"/>
<stop offset="1" stop-color="#004474"/>
</radialGradient>
<linearGradient id="paint6_linear_14_2" x1="106.42" y1="82.48" x2="106.42" y2="87.24" gradientUnits="userSpaceOnUse">
<stop stop-color="#008EF2"/>
<stop offset="1" stop-color="#00528C"/>
</linearGradient>
<radialGradient id="paint7_radial_14_2" cx="0" cy="0" r="1" gradientUnits="userSpaceOnUse" gradientTransform="translate(70.785 76.98) rotate(-174.719) scale(4.18276)">
<stop stop-color="#00A6D4"/>
<stop offset="1" stop-color="#004474"/>
</radialGradient>
<linearGradient id="paint8_linear_14_2" x1="69.7" y1="74.32" x2="69.7" y2="79.08" gradientUnits="userSpaceOnUse">
<stop stop-color="#008EF2"/>
<stop offset="1" stop-color="#00528C"/>
</linearGradient>
<radialGradient id="paint9_radial_14_2" cx="0" cy="0" r="1" gradientUnits="userSpaceOnUse" gradientTransform="translate(100.5 96) rotate(-174.719) scale(59.7537)">
<stop stop-color="#00A6D4"/>
<stop offset="1" stop-color="#004474"/>
</radialGradient>
<radialGradient id="paint10_radial_14_2" cx="0" cy="0" r="1" gradientUnits="userSpaceOnUse" gradientTransform="translate(328.433 -95.957) rotate(143.283) scale(239.397 228.14)">
<stop stop-color="#6CF0F8" stop-opacity="0.4"/>
<stop offset="1" stop-color="#3A6BE9" stop-opacity="0"/>
</radialGradient>
<radialGradient id="paint11_radial_14_2" cx="0" cy="0" r="1" gradientUnits="userSpaceOnUse" gradientTransform="translate(399.356 193.717) rotate(-170.62) scale(183.012 126.059)">
<stop stop-color="#2DA89B" stop-opacity="0.4"/>
<stop offset="1" stop-color="#38BD85" stop-opacity="0"/>
</radialGradient>
<radialGradient id="paint12_radial_14_2" cx="0" cy="0" r="1" gradientUnits="userSpaceOnUse" gradientTransform="translate(-1.39497e-06 46.9542) scale(141.477 94.3181)">
<stop stop-color="#2DA89B" stop-opacity="0.2"/>
<stop offset="1" stop-color="#38BD85" stop-opacity="0"/>
</radialGradient>
</defs>
</svg>
