<svg width="383" height="100" viewBox="0 0 383 100" fill="none" xmlns="http://www.w3.org/2000/svg">
<g filter="url(#filter0_d_2_132)">
<path d="M27 27.5C27 27.5 38.5 17.5 58.5 32C78.5 46.5 76 79.5 76 79.5" stroke="url(#paint0_linear_2_132)" stroke-width="3" stroke-linecap="round"/>
</g>
<path d="M94 17C95.1046 17 96 17.8954 96 19V30C96 31.1046 95.1046 32 94 32H75C73.8954 32 73 31.1046 73 30V19C73 17.8954 73.8954 17 75 17H94ZM84.5 21C82.567 21 81 22.567 81 24.5C81 26.433 82.567 28 84.5 28C86.433 28 88 26.433 88 24.5C88 22.567 86.433 21 84.5 21Z" fill="url(#paint1_linear_2_132)"/>
<path d="M75 83C76.1046 83 77 83.8954 77 85V96C77 97.1046 76.1046 98 75 98H56C54.8954 98 54 97.1046 54 96V85C54 83.8954 54.8954 83 56 83H75ZM65.5 87C63.567 87 62 88.567 62 90.5C62 92.433 63.567 94 65.5 94C67.433 94 69 92.433 69 90.5C69 88.567 67.433 87 65.5 87Z" fill="url(#paint2_linear_2_132)"/>
<path d="M34 50C35.1046 50 36 50.8954 36 52V63C36 64.1046 35.1046 65 34 65H15C13.8954 65 13 64.1046 13 63V52C13 50.8954 13.8954 50 15 50H34ZM24.5 54C22.567 54 21 55.567 21 57.5C21 59.433 22.567 61 24.5 61C26.433 61 28 59.433 28 57.5C28 55.567 26.433 54 24.5 54Z" fill="url(#paint3_linear_2_132)"/>
<path d="M82.9462 39.898C83.166 39.0993 82.6967 38.2736 81.898 38.0538C81.0993 37.834 80.2736 38.3033 80.0538 39.102L82.9462 39.898ZM81.5 39.5L80.0538 39.102C76.8162 50.8664 68.7004 57.6344 57.1941 60.0315L57.5 61.5L57.8059 62.9685C70.2996 60.3656 79.3803 52.8553 82.9462 39.898L81.5 39.5ZM57.5 61.5L57.1941 60.0315C44.5104 62.674 36.8662 72.9262 31.2006 82.7507L32.5 83.5L33.7994 84.2493C39.4166 74.5088 46.4896 65.326 57.8059 62.9685L57.5 61.5Z" fill="url(#paint4_linear_2_132)"/>
<circle cx="81.5" cy="39.5" r="3" fill="url(#paint5_linear_2_132)" stroke="url(#paint6_linear_2_132)"/>
<circle cx="27.5" cy="27.5" r="3" fill="url(#paint7_linear_2_132)" stroke="url(#paint8_linear_2_132)"/>
<path d="M50 0C62.95 0 74.7501 4.92318 83.6309 13H75.6133C68.3431 7.95773 59.5177 5 50 5C25.1472 5 5 25.1472 5 50C5 74.8528 25.1472 95 50 95C50.6702 95 51.3369 94.9821 52 94.9531V99.959C51.3366 99.9851 50.6698 100 50 100C22.3858 100 0 77.6142 0 50C0 22.3858 22.3858 0 50 0ZM97.71 35C99.1973 39.7353 100 44.7739 100 50C100 66.3578 92.144 80.8799 80 90.002V83.5371C89.2049 75.2974 95 63.3264 95 50C95 44.74 94.0941 39.692 92.4355 35H97.71Z" fill="url(#paint9_linear_2_132)"/>
<path d="M138.375 31.875V66H131.367V31.875H138.375ZM148.875 31.875V37.3828H121.031V31.875H148.875ZM157.57 46.1719V66H150.82V40.6406H157.172L157.57 46.1719ZM165.211 40.4766L165.094 46.7344C164.766 46.6875 164.367 46.6484 163.898 46.6172C163.445 46.5703 163.031 46.5469 162.656 46.5469C161.703 46.5469 160.875 46.6719 160.172 46.9219C159.484 47.1562 158.906 47.5078 158.438 47.9766C157.984 48.4453 157.641 49.0156 157.406 49.6875C157.188 50.3594 157.062 51.125 157.031 51.9844L155.672 51.5625C155.672 49.9219 155.836 48.4141 156.164 47.0391C156.492 45.6484 156.969 44.4375 157.594 43.4062C158.234 42.375 159.016 41.5781 159.938 41.0156C160.859 40.4531 161.914 40.1719 163.102 40.1719C163.477 40.1719 163.859 40.2031 164.25 40.2656C164.641 40.3125 164.961 40.3828 165.211 40.4766ZM181.289 60.2812V48.9844C181.289 48.1719 181.156 47.4766 180.891 46.8984C180.625 46.3047 180.211 45.8438 179.648 45.5156C179.102 45.1875 178.391 45.0234 177.516 45.0234C176.766 45.0234 176.117 45.1562 175.57 45.4219C175.023 45.6719 174.602 46.0391 174.305 46.5234C174.008 46.9922 173.859 47.5469 173.859 48.1875H167.109C167.109 47.1094 167.359 46.0859 167.859 45.1172C168.359 44.1484 169.086 43.2969 170.039 42.5625C170.992 41.8125 172.125 41.2266 173.438 40.8047C174.766 40.3828 176.25 40.1719 177.891 40.1719C179.859 40.1719 181.609 40.5 183.141 41.1562C184.672 41.8125 185.875 42.7969 186.75 44.1094C187.641 45.4219 188.086 47.0625 188.086 49.0312V59.8828C188.086 61.2734 188.172 62.4141 188.344 63.3047C188.516 64.1797 188.766 64.9453 189.094 65.6016V66H182.273C181.945 65.3125 181.695 64.4531 181.523 63.4219C181.367 62.375 181.289 61.3281 181.289 60.2812ZM182.18 50.5547L182.227 54.375H178.453C177.562 54.375 176.789 54.4766 176.133 54.6797C175.477 54.8828 174.938 55.1719 174.516 55.5469C174.094 55.9062 173.781 56.3281 173.578 56.8125C173.391 57.2969 173.297 57.8281 173.297 58.4062C173.297 58.9844 173.43 59.5078 173.695 59.9766C173.961 60.4297 174.344 60.7891 174.844 61.0547C175.344 61.3047 175.93 61.4297 176.602 61.4297C177.617 61.4297 178.5 61.2266 179.25 60.8203C180 60.4141 180.578 59.9141 180.984 59.3203C181.406 58.7266 181.625 58.1641 181.641 57.6328L183.422 60.4922C183.172 61.1328 182.828 61.7969 182.391 62.4844C181.969 63.1719 181.43 63.8203 180.773 64.4297C180.117 65.0234 179.328 65.5156 178.406 65.9062C177.484 66.2812 176.391 66.4688 175.125 66.4688C173.516 66.4688 172.055 66.1484 170.742 65.5078C169.445 64.8516 168.414 63.9531 167.648 62.8125C166.898 61.6562 166.523 60.3438 166.523 58.875C166.523 57.5469 166.773 56.3672 167.273 55.3359C167.773 54.3047 168.508 53.4375 169.477 52.7344C170.461 52.0156 171.688 51.4766 173.156 51.1172C174.625 50.7422 176.328 50.5547 178.266 50.5547H182.18ZM203.766 61.1953C204.594 61.1953 205.328 61.0391 205.969 60.7266C206.609 60.3984 207.109 59.9453 207.469 59.3672C207.844 58.7734 208.039 58.0781 208.055 57.2812H214.406C214.391 59.0625 213.914 60.6484 212.977 62.0391C212.039 63.4141 210.781 64.5 209.203 65.2969C207.625 66.0781 205.859 66.4688 203.906 66.4688C201.938 66.4688 200.219 66.1406 198.75 65.4844C197.297 64.8281 196.086 63.9219 195.117 62.7656C194.148 61.5938 193.422 60.2344 192.938 58.6875C192.453 57.125 192.211 55.4531 192.211 53.6719V52.9922C192.211 51.1953 192.453 49.5234 192.938 47.9766C193.422 46.4141 194.148 45.0547 195.117 43.8984C196.086 42.7266 197.297 41.8125 198.75 41.1562C200.203 40.5 201.906 40.1719 203.859 40.1719C205.938 40.1719 207.758 40.5703 209.32 41.3672C210.898 42.1641 212.133 43.3047 213.023 44.7891C213.93 46.2578 214.391 48 214.406 50.0156H208.055C208.039 49.1719 207.859 48.4062 207.516 47.7188C207.188 47.0312 206.703 46.4844 206.062 46.0781C205.438 45.6562 204.664 45.4453 203.742 45.4453C202.758 45.4453 201.953 45.6562 201.328 46.0781C200.703 46.4844 200.219 47.0469 199.875 47.7656C199.531 48.4688 199.289 49.2734 199.148 50.1797C199.023 51.0703 198.961 52.0078 198.961 52.9922V53.6719C198.961 54.6562 199.023 55.6016 199.148 56.5078C199.273 57.4141 199.508 58.2188 199.852 58.9219C200.211 59.625 200.703 60.1797 201.328 60.5859C201.953 60.9922 202.766 61.1953 203.766 61.1953ZM225.07 29.9766V66H218.32V29.9766H225.07ZM241.055 40.6406L230.039 53.2031L224.133 59.1797L221.672 54.3047L226.359 48.3516L232.945 40.6406H241.055ZM234.047 66L226.547 54.2812L231.211 50.2031L241.828 66H234.047ZM262.148 57.0703C262.148 56.4609 262.055 55.9141 261.867 55.4297C261.695 54.9297 261.367 54.4766 260.883 54.0703C260.398 53.6484 259.719 53.2344 258.844 52.8281C257.969 52.4219 256.836 52 255.445 51.5625C253.898 51.0625 252.43 50.5 251.039 49.875C249.664 49.25 248.445 48.5234 247.383 47.6953C246.336 46.8516 245.508 45.875 244.898 44.7656C244.305 43.6562 244.008 42.3672 244.008 40.8984C244.008 39.4766 244.32 38.1875 244.945 37.0312C245.57 35.8594 246.445 34.8594 247.57 34.0312C248.695 33.1875 250.023 32.5391 251.555 32.0859C253.102 31.6328 254.797 31.4062 256.641 31.4062C259.156 31.4062 261.352 31.8594 263.227 32.7656C265.102 33.6719 266.555 34.9141 267.586 36.4922C268.633 38.0703 269.156 39.875 269.156 41.9062H262.172C262.172 40.9062 261.961 40.0312 261.539 39.2812C261.133 38.5156 260.508 37.9141 259.664 37.4766C258.836 37.0391 257.789 36.8203 256.523 36.8203C255.305 36.8203 254.289 37.0078 253.477 37.3828C252.664 37.7422 252.055 38.2344 251.648 38.8594C251.242 39.4688 251.039 40.1562 251.039 40.9219C251.039 41.5 251.18 42.0234 251.461 42.4922C251.758 42.9609 252.195 43.3984 252.773 43.8047C253.352 44.2109 254.062 44.5938 254.906 44.9531C255.75 45.3125 256.727 45.6641 257.836 46.0078C259.695 46.5703 261.328 47.2031 262.734 47.9062C264.156 48.6094 265.344 49.3984 266.297 50.2734C267.25 51.1484 267.969 52.1406 268.453 53.25C268.938 54.3594 269.18 55.6172 269.18 57.0234C269.18 58.5078 268.891 59.8359 268.312 61.0078C267.734 62.1797 266.898 63.1719 265.805 63.9844C264.711 64.7969 263.406 65.4141 261.891 65.8359C260.375 66.2578 258.68 66.4688 256.805 66.4688C255.117 66.4688 253.453 66.25 251.812 65.8125C250.172 65.3594 248.68 64.6797 247.336 63.7734C246.008 62.8672 244.945 61.7109 244.148 60.3047C243.352 58.8984 242.953 57.2344 242.953 55.3125H250.008C250.008 56.375 250.172 57.2734 250.5 58.0078C250.828 58.7422 251.289 59.3359 251.883 59.7891C252.492 60.2422 253.211 60.5703 254.039 60.7734C254.883 60.9766 255.805 61.0781 256.805 61.0781C258.023 61.0781 259.023 60.9062 259.805 60.5625C260.602 60.2188 261.188 59.7422 261.562 59.1328C261.953 58.5234 262.148 57.8359 262.148 57.0703ZM285.961 40.6406V45.4219H271.195V40.6406H285.961ZM274.852 34.3828H281.602V58.3594C281.602 59.0938 281.695 59.6562 281.883 60.0469C282.086 60.4375 282.383 60.7109 282.773 60.8672C283.164 61.0078 283.656 61.0781 284.25 61.0781C284.672 61.0781 285.047 61.0625 285.375 61.0312C285.719 60.9844 286.008 60.9375 286.242 60.8906L286.266 65.8594C285.688 66.0469 285.062 66.1953 284.391 66.3047C283.719 66.4141 282.977 66.4688 282.164 66.4688C280.68 66.4688 279.383 66.2266 278.273 65.7422C277.18 65.2422 276.336 64.4453 275.742 63.3516C275.148 62.2578 274.852 60.8203 274.852 59.0391V34.3828ZM304.805 59.9297V40.6406H311.555V66H305.203L304.805 59.9297ZM305.555 54.7266L307.547 54.6797C307.547 56.3672 307.352 57.9375 306.961 59.3906C306.57 60.8281 305.984 62.0781 305.203 63.1406C304.422 64.1875 303.438 65.0078 302.25 65.6016C301.062 66.1797 299.664 66.4688 298.055 66.4688C296.82 66.4688 295.68 66.2969 294.633 65.9531C293.602 65.5938 292.711 65.0391 291.961 64.2891C291.227 63.5234 290.648 62.5469 290.227 61.3594C289.82 60.1562 289.617 58.7109 289.617 57.0234V40.6406H296.367V57.0703C296.367 57.8203 296.453 58.4531 296.625 58.9688C296.812 59.4844 297.07 59.9062 297.398 60.2344C297.727 60.5625 298.109 60.7969 298.547 60.9375C299 61.0781 299.5 61.1484 300.047 61.1484C301.438 61.1484 302.531 60.8672 303.328 60.3047C304.141 59.7422 304.711 58.9766 305.039 58.0078C305.383 57.0234 305.555 55.9297 305.555 54.7266ZM331.688 60.4688V30H338.484V66H332.367L331.688 60.4688ZM315.656 53.625V53.1328C315.656 51.1953 315.875 49.4375 316.312 47.8594C316.75 46.2656 317.391 44.8984 318.234 43.7578C319.078 42.6172 320.117 41.7344 321.352 41.1094C322.586 40.4844 323.992 40.1719 325.57 40.1719C327.055 40.1719 328.352 40.4844 329.461 41.1094C330.586 41.7344 331.539 42.625 332.32 43.7812C333.117 44.9219 333.758 46.2734 334.242 47.8359C334.727 49.3828 335.078 51.0781 335.297 52.9219V54C335.078 55.7656 334.727 57.4062 334.242 58.9219C333.758 60.4375 333.117 61.7656 332.32 62.9062C331.539 64.0312 330.586 64.9062 329.461 65.5312C328.336 66.1562 327.023 66.4688 325.523 66.4688C323.945 66.4688 322.539 66.1484 321.305 65.5078C320.086 64.8672 319.055 63.9688 318.211 62.8125C317.383 61.6562 316.75 60.2969 316.312 58.7344C315.875 57.1719 315.656 55.4688 315.656 53.625ZM322.406 53.1328V53.625C322.406 54.6719 322.484 55.6484 322.641 56.5547C322.812 57.4609 323.086 58.2656 323.461 58.9688C323.852 59.6562 324.352 60.1953 324.961 60.5859C325.586 60.9609 326.344 61.1484 327.234 61.1484C328.391 61.1484 329.344 60.8906 330.094 60.375C330.844 59.8438 331.414 59.1172 331.805 58.1953C332.211 57.2734 332.445 56.2109 332.508 55.0078V51.9375C332.461 50.9531 332.32 50.0703 332.086 49.2891C331.867 48.4922 331.539 47.8125 331.102 47.25C330.68 46.6875 330.148 46.25 329.508 45.9375C328.883 45.625 328.141 45.4688 327.281 45.4688C326.406 45.4688 325.656 45.6719 325.031 46.0781C324.406 46.4688 323.898 47.0078 323.508 47.6953C323.133 48.3828 322.852 49.1953 322.664 50.1328C322.492 51.0547 322.406 52.0547 322.406 53.1328ZM350.883 40.6406V66H344.109V40.6406H350.883ZM343.688 34.0312C343.688 33.0469 344.031 32.2344 344.719 31.5938C345.406 30.9531 346.328 30.6328 347.484 30.6328C348.625 30.6328 349.539 30.9531 350.227 31.5938C350.93 32.2344 351.281 33.0469 351.281 34.0312C351.281 35.0156 350.93 35.8281 350.227 36.4688C349.539 37.1094 348.625 37.4297 347.484 37.4297C346.328 37.4297 345.406 37.1094 344.719 36.4688C344.031 35.8281 343.688 35.0156 343.688 34.0312ZM355.383 53.5781V53.0859C355.383 51.2266 355.648 49.5156 356.18 47.9531C356.711 46.375 357.484 45.0078 358.5 43.8516C359.516 42.6953 360.766 41.7969 362.25 41.1562C363.734 40.5 365.438 40.1719 367.359 40.1719C369.281 40.1719 370.992 40.5 372.492 41.1562C373.992 41.7969 375.25 42.6953 376.266 43.8516C377.297 45.0078 378.078 46.375 378.609 47.9531C379.141 49.5156 379.406 51.2266 379.406 53.0859V53.5781C379.406 55.4219 379.141 57.1328 378.609 58.7109C378.078 60.2734 377.297 61.6406 376.266 62.8125C375.25 63.9688 374 64.8672 372.516 65.5078C371.031 66.1484 369.328 66.4688 367.406 66.4688C365.484 66.4688 363.773 66.1484 362.273 65.5078C360.789 64.8672 359.531 63.9688 358.5 62.8125C357.484 61.6406 356.711 60.2734 356.18 58.7109C355.648 57.1328 355.383 55.4219 355.383 53.5781ZM362.133 53.0859V53.5781C362.133 54.6406 362.227 55.6328 362.414 56.5547C362.602 57.4766 362.898 58.2891 363.305 58.9922C363.727 59.6797 364.273 60.2188 364.945 60.6094C365.617 61 366.438 61.1953 367.406 61.1953C368.344 61.1953 369.148 61 369.82 60.6094C370.492 60.2188 371.031 59.6797 371.438 58.9922C371.844 58.2891 372.141 57.4766 372.328 56.5547C372.531 55.6328 372.633 54.6406 372.633 53.5781V53.0859C372.633 52.0547 372.531 51.0859 372.328 50.1797C372.141 49.2578 371.836 48.4453 371.414 47.7422C371.008 47.0234 370.469 46.4609 369.797 46.0547C369.125 45.6484 368.312 45.4453 367.359 45.4453C366.406 45.4453 365.594 45.6484 364.922 46.0547C364.266 46.4609 363.727 47.0234 363.305 47.7422C362.898 48.4453 362.602 49.2578 362.414 50.1797C362.227 51.0859 362.133 52.0547 362.133 53.0859Z" fill="white"/>
<defs>
<filter id="filter0_d_2_132" x="21.5" y="22.6392" width="60.1" height="66.3608" filterUnits="userSpaceOnUse" color-interpolation-filters="sRGB">
<feFlood flood-opacity="0" result="BackgroundImageFix"/>
<feColorMatrix in="SourceAlpha" type="matrix" values="0 0 0 0 0 0 0 0 0 0 0 0 0 0 0 0 0 0 127 0" result="hardAlpha"/>
<feOffset dy="4"/>
<feGaussianBlur stdDeviation="2"/>
<feComposite in2="hardAlpha" operator="out"/>
<feColorMatrix type="matrix" values="0 0 0 0 0 0 0 0 0 0 0 0 0 0 0 0 0 0 0.25 0"/>
<feBlend mode="normal" in2="BackgroundImageFix" result="effect1_dropShadow_2_132"/>
<feBlend mode="normal" in="SourceGraphic" in2="effect1_dropShadow_2_132" result="shape"/>
</filter>
<linearGradient id="paint0_linear_2_132" x1="51.55" y1="24.1393" x2="51.55" y2="79.5" gradientUnits="userSpaceOnUse">
<stop stop-color="#008EF2"/>
<stop offset="1" stop-color="#00528C"/>
</linearGradient>
<linearGradient id="paint1_linear_2_132" x1="84.5" y1="17" x2="84.5" y2="32" gradientUnits="userSpaceOnUse">
<stop stop-color="#008EF2"/>
<stop offset="1" stop-color="#00528C"/>
</linearGradient>
<linearGradient id="paint2_linear_2_132" x1="65.5" y1="83" x2="65.5" y2="98" gradientUnits="userSpaceOnUse">
<stop stop-color="#008EF2"/>
<stop offset="1" stop-color="#00528C"/>
</linearGradient>
<linearGradient id="paint3_linear_2_132" x1="24.5" y1="50" x2="24.5" y2="65" gradientUnits="userSpaceOnUse">
<stop stop-color="#008EF2"/>
<stop offset="1" stop-color="#00528C"/>
</linearGradient>
<linearGradient id="paint4_linear_2_132" x1="57" y1="39.5" x2="57" y2="83.5" gradientUnits="userSpaceOnUse">
<stop stop-color="#008EF2"/>
<stop offset="1" stop-color="#00528C"/>
</linearGradient>
<linearGradient id="paint5_linear_2_132" x1="81.5" y1="36" x2="81.5" y2="43" gradientUnits="userSpaceOnUse">
<stop stop-color="#008EF2"/>
<stop offset="1" stop-color="#00528C"/>
</linearGradient>
<linearGradient id="paint6_linear_2_132" x1="81.5" y1="36" x2="81.5" y2="43" gradientUnits="userSpaceOnUse">
<stop stop-color="#008EF2"/>
<stop offset="1" stop-color="#00528C"/>
</linearGradient>
<linearGradient id="paint7_linear_2_132" x1="27.5" y1="24" x2="27.5" y2="31" gradientUnits="userSpaceOnUse">
<stop stop-color="#008EF2"/>
<stop offset="1" stop-color="#00528C"/>
</linearGradient>
<linearGradient id="paint8_linear_2_132" x1="27.5" y1="24" x2="27.5" y2="31" gradientUnits="userSpaceOnUse">
<stop stop-color="#008EF2"/>
<stop offset="1" stop-color="#00528C"/>
</linearGradient>
<linearGradient id="paint9_linear_2_132" x1="50" y1="0" x2="50" y2="100" gradientUnits="userSpaceOnUse">
<stop stop-color="#008EF2"/>
<stop offset="1" stop-color="#00528C"/>
</linearGradient>
</defs>
</svg>
